<svg width="109" height="21" viewBox="0 0 109 21" fill="none" xmlns="http://www.w3.org/2000/svg">
<path d="M3.696 14.832C4.2 14.79 4.592 14.713 4.872 14.601C5.152 14.489 5.362 14.314 5.502 14.076C5.656 13.838 5.747 13.53 5.775 13.152C5.817 12.76 5.838 12.27 5.838 11.682V1.938C5.096 1.938 4.473 1.966 3.969 2.022C3.479 2.078 3.052 2.225 2.688 2.463C2.324 2.687 2.002 3.037 1.722 3.513C1.456 3.989 1.19 4.64 0.924 5.466L0.651 5.382L0.945 1.266C1.533 1.294 2.114 1.315 2.688 1.329C3.262 1.343 3.843 1.35 4.431 1.35H9.366C9.926 1.35 10.479 1.343 11.025 1.329C11.571 1.315 12.124 1.294 12.684 1.266L12.978 5.382L12.705 5.466C12.439 4.64 12.166 3.989 11.886 3.513C11.62 3.037 11.305 2.687 10.941 2.463C10.577 2.225 10.136 2.078 9.618 2.022C9.114 1.966 8.484 1.938 7.728 1.938V11.682C7.728 12.27 7.742 12.76 7.77 13.152C7.812 13.53 7.903 13.838 8.043 14.076C8.197 14.314 8.421 14.489 8.715 14.601C9.009 14.713 9.415 14.79 9.933 14.832V15.084C9.401 15.056 8.869 15.035 8.337 15.021C7.805 15.007 7.273 15 6.741 15C6.223 15 5.712 15.007 5.208 15.021C4.704 15.035 4.2 15.056 3.696 15.084V14.832ZM14.2426 10.59C14.2426 11.318 14.3336 11.92 14.5156 12.396C14.7116 12.872 14.9496 13.25 15.2296 13.53C15.5236 13.81 15.8316 14.006 16.1536 14.118C16.4896 14.23 16.7976 14.286 17.0776 14.286C17.6656 14.286 18.1976 14.195 18.6736 14.013C19.1496 13.817 19.5906 13.516 19.9966 13.11L20.3536 13.446C19.7796 14.062 19.1916 14.531 18.5896 14.853C17.9876 15.175 17.2666 15.336 16.4266 15.336C15.8246 15.336 15.2856 15.217 14.8096 14.979C14.3336 14.741 13.9276 14.426 13.5916 14.034C13.2556 13.642 12.9966 13.194 12.8146 12.69C12.6466 12.186 12.5626 11.668 12.5626 11.136C12.5626 10.604 12.6466 10.086 12.8146 9.582C12.9966 9.078 13.2556 8.63 13.5916 8.238C13.9276 7.846 14.3336 7.531 14.8096 7.293C15.2856 7.055 15.8246 6.936 16.4266 6.936C17.5326 6.936 18.4216 7.237 19.0936 7.839C19.7656 8.441 20.1786 9.358 20.3326 10.59H14.2426ZM18.3376 9.96C18.2956 9.582 18.2396 9.246 18.1696 8.952C18.0996 8.644 17.9876 8.392 17.8336 8.196C17.6796 7.986 17.4766 7.832 17.2246 7.734C16.9726 7.622 16.6506 7.566 16.2586 7.566C15.9646 7.566 15.6916 7.643 15.4396 7.797C15.2016 7.937 14.9916 8.126 14.8096 8.364C14.6416 8.588 14.5086 8.847 14.4106 9.141C14.3266 9.421 14.2846 9.694 14.2846 9.96H18.3376ZM29.1176 10.464C28.9776 10.114 28.8166 9.764 28.6346 9.414C28.4666 9.05 28.2566 8.728 28.0046 8.448C27.7666 8.168 27.4796 7.937 27.1436 7.755C26.8216 7.573 26.4436 7.482 26.0096 7.482C25.5756 7.482 25.2046 7.587 24.8966 7.797C24.5886 8.007 24.3366 8.28 24.1406 8.616C23.9586 8.938 23.8186 9.309 23.7206 9.729C23.6366 10.135 23.5946 10.541 23.5946 10.947C23.5946 11.409 23.6716 11.85 23.8256 12.27C23.9796 12.69 24.1966 13.068 24.4766 13.404C24.7566 13.726 25.0926 13.985 25.4846 14.181C25.8906 14.363 26.3386 14.454 26.8286 14.454C27.3466 14.454 27.8366 14.363 28.2986 14.181C28.7606 13.985 29.2016 13.74 29.6216 13.446L29.9156 13.782C29.2856 14.3 28.6626 14.692 28.0466 14.958C27.4446 15.21 26.7656 15.336 26.0096 15.336C25.4636 15.336 24.9386 15.224 24.4346 15C23.9446 14.776 23.5106 14.475 23.1326 14.097C22.7686 13.719 22.4746 13.278 22.2506 12.774C22.0266 12.256 21.9146 11.71 21.9146 11.136C21.9146 10.562 22.0266 10.023 22.2506 9.519C22.4746 9.001 22.7686 8.553 23.1326 8.175C23.5106 7.797 23.9446 7.496 24.4346 7.272C24.9386 7.048 25.4636 6.936 26.0096 6.936C26.5976 6.936 27.1366 6.971 27.6266 7.041C28.1166 7.097 28.6066 7.174 29.0966 7.272L29.3696 10.464H29.1176ZM41.2627 15.084C40.8567 15.056 40.4227 15.035 39.9607 15.021C39.4987 15.007 39.0297 15 38.5537 15C38.2317 15 37.9167 15.007 37.6087 15.021C37.3147 15.035 37.0277 15.056 36.7477 15.084V14.832C37.1957 14.748 37.5387 14.636 37.7767 14.496C38.0287 14.342 38.1547 14.034 38.1547 13.572V10.191C38.1547 9.477 38.0007 8.924 37.6927 8.532C37.3987 8.14 36.9157 7.944 36.2437 7.944C36.0057 7.944 35.7607 7.979 35.5087 8.049C35.2567 8.119 35.0257 8.217 34.8157 8.343C34.6057 8.455 34.4307 8.581 34.2907 8.721C34.1507 8.861 34.0807 8.994 34.0807 9.12V13.572C34.0807 14.034 34.2137 14.342 34.4797 14.496C34.7457 14.636 35.1447 14.748 35.6767 14.832V15.084C35.2007 15.056 34.7247 15.035 34.2487 15.021C33.7867 15.007 33.3177 15 32.8417 15C32.5197 15 32.2047 15.007 31.8967 15.021C31.6027 15.035 31.2947 15.056 30.9727 15.084V14.832C31.4487 14.748 31.8127 14.636 32.0647 14.496C32.3167 14.342 32.4427 14.034 32.4427 13.572V2.862C32.4427 2.358 32.4147 1.966 32.3587 1.686C32.3167 1.392 32.2327 1.175 32.1067 1.035C31.9947 0.880999 31.8337 0.782999 31.6237 0.741C31.4277 0.698999 31.1757 0.670999 30.8677 0.656999V0.404999L34.0807 0.0479997V8.175C34.4587 7.881 34.8927 7.601 35.3827 7.335C35.8727 7.069 36.3417 6.936 36.7897 6.936C37.1817 6.936 37.5527 6.985 37.9027 7.083C38.2667 7.181 38.5887 7.342 38.8687 7.566C39.1487 7.79 39.3727 8.091 39.5407 8.469C39.7087 8.847 39.7927 9.316 39.7927 9.876V13.572C39.7927 14.034 39.9187 14.342 40.1707 14.496C40.4227 14.636 40.7867 14.748 41.2627 14.832V15.084ZM52.311 5.256C52.129 4.808 51.891 4.367 51.597 3.933C51.317 3.485 50.988 3.093 50.61 2.757C50.232 2.407 49.812 2.127 49.35 1.917C48.888 1.707 48.384 1.602 47.838 1.602C47.04 1.602 46.382 1.749 45.864 2.043C45.36 2.337 45.108 2.862 45.108 3.618C45.108 4.066 45.22 4.458 45.444 4.794C45.682 5.116 45.99 5.403 46.368 5.655C46.76 5.907 47.201 6.138 47.691 6.348C48.181 6.558 48.678 6.775 49.182 6.999C49.7 7.209 50.204 7.44 50.694 7.692C51.184 7.944 51.618 8.245 51.996 8.595C52.388 8.945 52.696 9.351 52.92 9.813C53.158 10.275 53.277 10.828 53.277 11.472C53.277 12.158 53.151 12.753 52.899 13.257C52.647 13.747 52.304 14.153 51.87 14.475C51.45 14.797 50.953 15.035 50.379 15.189C49.819 15.343 49.217 15.42 48.573 15.42C48.223 15.42 47.859 15.385 47.481 15.315C47.103 15.259 46.739 15.189 46.389 15.105C46.039 15.035 45.717 14.972 45.423 14.916C45.143 14.846 44.919 14.811 44.751 14.811C44.597 14.811 44.45 14.839 44.31 14.895C44.17 14.937 44.023 14.986 43.869 15.042C43.743 14.244 43.596 13.467 43.428 12.711C43.26 11.941 43.085 11.157 42.903 10.359L43.176 10.212C43.428 10.702 43.729 11.213 44.079 11.745C44.443 12.277 44.849 12.767 45.297 13.215C45.745 13.649 46.235 14.013 46.767 14.307C47.313 14.601 47.901 14.748 48.531 14.748C48.937 14.748 49.329 14.706 49.707 14.622C50.085 14.524 50.414 14.377 50.694 14.181C50.988 13.985 51.219 13.733 51.387 13.425C51.555 13.103 51.639 12.711 51.639 12.249C51.639 11.591 51.436 11.045 51.03 10.611C50.624 10.163 50.12 9.778 49.518 9.456C48.916 9.12 48.258 8.812 47.544 8.532C46.844 8.252 46.193 7.937 45.591 7.587C44.989 7.237 44.485 6.824 44.079 6.348C43.673 5.872 43.47 5.27 43.47 4.542C43.47 3.996 43.575 3.499 43.785 3.051C43.995 2.603 44.275 2.225 44.625 1.917C44.989 1.595 45.402 1.35 45.864 1.182C46.34 1.014 46.844 0.93 47.376 0.93C47.894 0.93 48.356 0.965 48.762 1.035C49.182 1.105 49.588 1.182 49.98 1.266C50.386 1.35 50.785 1.434 51.177 1.518C51.569 1.588 51.989 1.623 52.437 1.623C52.437 2.253 52.444 2.869 52.458 3.471C52.486 4.059 52.535 4.654 52.605 5.256H52.311ZM57.7242 12.438C57.7242 13.026 57.8712 13.481 58.1652 13.803C58.4732 14.125 58.9212 14.286 59.5092 14.286C59.9572 14.286 60.3982 14.181 60.8322 13.971C61.2802 13.747 61.6092 13.516 61.8192 13.278V8.847C61.8192 8.665 61.8052 8.497 61.7772 8.343C61.7492 8.189 61.6792 8.056 61.5672 7.944C61.4552 7.818 61.2872 7.713 61.0632 7.629C60.8392 7.531 60.5382 7.454 60.1602 7.398V7.167L63.4572 6.936V13.383C63.4572 13.915 63.5902 14.272 63.8562 14.454C64.1362 14.622 64.5212 14.72 65.0112 14.748V14.958C64.4792 14.986 63.9402 15.007 63.3942 15.021C62.8622 15.035 62.3372 15.056 61.8192 15.084V13.992C61.3292 14.356 60.8112 14.671 60.2652 14.937C59.7332 15.203 59.1522 15.336 58.5222 15.336C57.8502 15.336 57.2762 15.147 56.8002 14.769C56.3242 14.391 56.0862 13.81 56.0862 13.026V8.679C56.0862 8.259 55.9672 7.972 55.7292 7.818C55.5052 7.664 55.0992 7.552 54.5112 7.482V7.209L57.7242 6.936V12.438ZM66.0215 7.524L69.0875 7.062V8.175C69.4655 7.881 69.8995 7.601 70.3895 7.335C70.8795 7.069 71.3485 6.936 71.7965 6.936C72.1885 6.936 72.5595 6.985 72.9095 7.083C73.2735 7.181 73.5955 7.342 73.8755 7.566C74.1555 7.79 74.3795 8.091 74.5475 8.469C74.7155 8.847 74.7995 9.316 74.7995 9.876V13.572C74.7995 14.034 74.9255 14.342 75.1775 14.496C75.4295 14.636 75.7935 14.748 76.2695 14.832V15.084C75.8635 15.056 75.4295 15.035 74.9675 15.021C74.5055 15.007 74.0365 15 73.5605 15C73.2385 15 72.9235 15.007 72.6155 15.021C72.3215 15.035 72.0345 15.056 71.7545 15.084V14.832C72.2025 14.748 72.5455 14.636 72.7835 14.496C73.0355 14.342 73.1615 14.034 73.1615 13.572V10.191C73.1615 9.477 73.0075 8.924 72.6995 8.532C72.4055 8.14 71.9225 7.944 71.2505 7.944C71.0125 7.944 70.7675 7.979 70.5155 8.049C70.2635 8.119 70.0325 8.217 69.8225 8.343C69.6125 8.455 69.4375 8.581 69.2975 8.721C69.1575 8.861 69.0875 8.994 69.0875 9.12V13.572C69.0875 14.034 69.2205 14.342 69.4865 14.496C69.7525 14.636 70.1515 14.748 70.6835 14.832V15.084C70.2075 15.056 69.7315 15.035 69.2555 15.021C68.7935 15.007 68.3245 15 67.8485 15C67.5265 15 67.2115 15.007 66.9035 15.021C66.6095 15.035 66.3015 15.056 65.9795 15.084V14.832C66.4555 14.748 66.8195 14.636 67.0715 14.496C67.3235 14.342 67.4495 14.034 67.4495 13.572V8.7C67.4495 8.28 67.3025 8.021 67.0085 7.923C66.7285 7.825 66.3995 7.776 66.0215 7.776V7.524ZM86.0788 12.879C86.0788 13.243 86.0998 13.544 86.1418 13.782C86.1838 14.02 86.2678 14.216 86.3938 14.37C86.5198 14.51 86.6948 14.608 86.9188 14.664C87.1568 14.72 87.4648 14.748 87.8428 14.748V15C87.2828 15 86.7228 15.007 86.1628 15.021C85.6168 15.035 85.0498 15.056 84.4618 15.084V14.307C84.1398 14.587 83.6848 14.825 83.0968 15.021C82.5228 15.231 81.8998 15.336 81.2278 15.336C80.6538 15.336 80.1288 15.224 79.6528 15C79.1908 14.79 78.7918 14.503 78.4558 14.139C78.1338 13.761 77.8818 13.327 77.6998 12.837C77.5178 12.347 77.4268 11.836 77.4268 11.304C77.4268 10.674 77.5388 10.093 77.7628 9.561C77.9868 9.029 78.2948 8.567 78.6868 8.175C79.0928 7.783 79.5618 7.482 80.0938 7.272C80.6398 7.048 81.2278 6.936 81.8578 6.936C82.3198 6.936 82.7678 7.02 83.2018 7.188C83.6358 7.356 84.0488 7.559 84.4408 7.797V2.358C84.4408 2.022 84.4128 1.749 84.3568 1.539C84.3148 1.329 84.2238 1.161 84.0838 1.035C83.9438 0.909 83.7548 0.817999 83.5168 0.761999C83.2928 0.705999 83.0058 0.663999 82.6558 0.636V0.383999L86.0788 0.0479997V12.879ZM84.4408 9.204C84.3988 9.022 84.2938 8.833 84.1258 8.637C83.9718 8.427 83.7758 8.245 83.5378 8.091C83.2998 7.923 83.0268 7.79 82.7188 7.692C82.4248 7.58 82.1238 7.524 81.8158 7.524C81.3398 7.524 80.9338 7.629 80.5978 7.839C80.2758 8.049 80.0098 8.329 79.7998 8.679C79.5898 9.015 79.4358 9.4 79.3378 9.834C79.2398 10.254 79.1908 10.674 79.1908 11.094C79.1908 11.514 79.2398 11.941 79.3378 12.375C79.4358 12.795 79.5898 13.18 79.7998 13.53C80.0098 13.866 80.2758 14.139 80.5978 14.349C80.9338 14.559 81.3398 14.664 81.8158 14.664C82.1378 14.664 82.4458 14.615 82.7398 14.517C83.0338 14.419 83.2998 14.3 83.5378 14.16C83.7758 14.006 83.9718 13.845 84.1258 13.677C84.2938 13.509 84.3988 13.362 84.4408 13.236V9.204ZM89.4201 8.868C89.5321 8.434 89.6861 8.091 89.8821 7.839C90.0921 7.573 90.3301 7.377 90.5961 7.251C90.8621 7.111 91.1631 7.027 91.4991 6.999C91.8351 6.957 92.1921 6.936 92.5701 6.936C92.9341 6.936 93.2911 6.978 93.6411 7.062C94.0051 7.132 94.3271 7.258 94.6071 7.44C94.9011 7.622 95.1321 7.867 95.3001 8.175C95.4821 8.469 95.5731 8.833 95.5731 9.267V13.152C95.5731 13.418 95.6431 13.656 95.7831 13.866C95.9231 14.062 96.1401 14.16 96.4341 14.16C96.7141 14.16 96.9591 14.083 97.1691 13.929C97.3931 13.761 97.6031 13.6 97.7991 13.446L98.0091 13.677C97.8691 13.817 97.7011 13.985 97.5051 14.181C97.3231 14.363 97.1271 14.545 96.9171 14.727C96.7071 14.895 96.4901 15.035 96.2661 15.147C96.0561 15.273 95.8461 15.336 95.6361 15.336C95.4961 15.336 95.3491 15.287 95.1951 15.189C95.0411 15.105 94.8871 15 94.7331 14.874C94.5931 14.748 94.4601 14.615 94.3341 14.475C94.2081 14.335 94.0961 14.216 93.9981 14.118C93.5501 14.426 93.0461 14.706 92.4861 14.958C91.9261 15.21 91.3801 15.336 90.8481 15.336C90.5541 15.336 90.2671 15.287 89.9871 15.189C89.7211 15.091 89.4831 14.951 89.2731 14.769C89.0631 14.587 88.8951 14.37 88.7691 14.118C88.6431 13.866 88.5801 13.579 88.5801 13.257C88.5801 12.683 88.7411 12.228 89.0631 11.892C89.3851 11.542 89.7981 11.276 90.3021 11.094C90.8201 10.912 91.4011 10.793 92.0451 10.737C92.7031 10.667 93.3611 10.625 94.0191 10.611V9.015C94.0191 8.497 93.8581 8.098 93.5361 7.818C93.2141 7.538 92.8081 7.398 92.3181 7.398C91.9541 7.398 91.6671 7.58 91.4571 7.944C91.2471 8.308 91.1421 8.721 91.1421 9.183L89.4201 8.868ZM93.9771 11.43C93.5151 11.304 93.0461 11.241 92.5701 11.241C92.3041 11.241 92.0381 11.276 91.7721 11.346C91.5061 11.402 91.2681 11.5 91.0581 11.64C90.8481 11.78 90.6731 11.962 90.5331 12.186C90.4071 12.396 90.3441 12.655 90.3441 12.963C90.3441 13.439 90.5051 13.782 90.8271 13.992C91.1631 14.188 91.5341 14.286 91.9401 14.286C92.3881 14.286 92.7941 14.195 93.1581 14.013C93.5361 13.831 93.8091 13.677 93.9771 13.551V11.43ZM97.4818 7.188C97.9018 7.23 98.2868 7.258 98.6368 7.272C99.0008 7.272 99.3998 7.272 99.8338 7.272C100.254 7.272 100.681 7.272 101.115 7.272C101.549 7.258 101.976 7.23 102.396 7.188V7.44C102.088 7.468 101.794 7.559 101.514 7.713C101.234 7.867 101.094 8.119 101.094 8.469C101.094 8.749 101.185 9.127 101.367 9.603C101.549 10.065 101.759 10.569 101.997 11.115C102.249 11.647 102.501 12.193 102.753 12.753C103.019 13.313 103.229 13.831 103.383 14.307C103.453 14.167 103.558 13.936 103.698 13.614C103.852 13.292 104.02 12.928 104.202 12.522C104.398 12.102 104.587 11.668 104.769 11.22C104.965 10.772 105.14 10.352 105.294 9.96C105.462 9.568 105.595 9.225 105.693 8.931C105.805 8.637 105.861 8.441 105.861 8.343C105.861 8.175 105.819 8.042 105.735 7.944C105.665 7.846 105.574 7.769 105.462 7.713C105.35 7.643 105.217 7.594 105.063 7.566C104.909 7.524 104.762 7.482 104.622 7.44V7.188C104.944 7.23 105.266 7.258 105.588 7.272C105.91 7.272 106.239 7.272 106.575 7.272C106.897 7.272 107.212 7.272 107.52 7.272C107.828 7.258 108.143 7.23 108.465 7.188V7.44C108.073 7.496 107.688 7.741 107.31 8.175C106.946 8.595 106.603 9.078 106.281 9.624C105.973 10.17 105.7 10.709 105.462 11.241C105.224 11.759 105.042 12.144 104.916 12.396C104.328 13.614 103.796 14.657 103.32 15.525C102.844 16.393 102.41 17.114 102.018 17.688C101.64 18.276 101.29 18.738 100.968 19.074C100.66 19.41 100.359 19.662 100.065 19.83C99.7848 20.012 99.5048 20.124 99.2248 20.166C98.9588 20.222 98.6788 20.25 98.3848 20.25C98.1328 20.25 97.8878 20.215 97.6498 20.145C97.3978 20.075 97.1808 19.963 96.9988 19.809C96.8028 19.669 96.6488 19.487 96.5368 19.263C96.4108 19.039 96.3478 18.773 96.3478 18.465C96.3478 18.185 96.4528 17.933 96.6628 17.709C96.8588 17.485 97.0968 17.373 97.3768 17.373C97.6988 17.373 97.9578 17.45 98.1538 17.604C98.3498 17.772 98.4478 18.024 98.4478 18.36C98.4478 18.598 98.3918 18.794 98.2798 18.948C98.1678 19.116 98.1118 19.235 98.1118 19.305C98.1118 19.389 98.2098 19.438 98.4058 19.452C98.6158 19.48 98.8188 19.494 99.0148 19.494C99.4348 19.494 99.8478 19.319 100.254 18.969C100.66 18.633 101.017 18.241 101.325 17.793C101.647 17.359 101.906 16.939 102.102 16.533C102.298 16.141 102.396 15.889 102.396 15.777C102.396 15.735 102.347 15.588 102.249 15.336C102.151 15.098 102.018 14.79 101.85 14.412C101.682 14.02 101.493 13.586 101.283 13.11C101.073 12.634 100.863 12.165 100.653 11.703C100.443 11.227 100.233 10.772 100.023 10.338C99.8128 9.89 99.6308 9.512 99.4768 9.204C99.3368 8.882 99.2178 8.623 99.1198 8.427C99.0218 8.231 98.9028 8.077 98.7628 7.965C98.6228 7.839 98.4548 7.741 98.2588 7.671C98.0628 7.601 97.8038 7.524 97.4818 7.44V7.188Z" fill="url(#paint0_linear)"/>
<defs>
<linearGradient id="paint0_linear" x1="54.5" y1="-5" x2="54.5" y2="21" gradientUnits="userSpaceOnUse">
<stop stop-color="#00ACEA"/>
<stop offset="1" stop-color="#00EFD1"/>
</linearGradient>
</defs>
</svg>
