<svg width="24" height="24" viewBox="0 0 24 24" fill="none" xmlns="http://www.w3.org/2000/svg">
<g clip-path="url(#clip0)">
<rect width="24" height="24" fill="white"/>
<path d="M20.7936 8.82163C19.023 8.82163 17.5876 10.257 17.5876 12.0279C17.5876 13.7985 19.023 15.2341 20.7936 15.2341C22.5645 15.2341 23.9999 13.7985 23.9999 12.0279C23.9979 10.258 22.5637 8.82366 20.7936 8.82163ZM20.7936 13.9368C19.7396 13.9368 18.8849 13.0822 18.8849 12.0279C18.8849 10.9736 19.7396 10.1189 20.7936 10.1189C21.8479 10.1189 22.7026 10.9736 22.7026 12.0279C22.7016 13.0817 21.8474 13.9356 20.7936 13.9368Z" fill="url(#paint0_linear)"/>
<path d="M11.9999 8.82163C10.2293 8.82163 8.7937 10.257 8.7937 12.0279C8.7937 13.7985 10.2293 15.2341 11.9999 15.2341C13.7708 15.2341 15.2062 13.7985 15.2062 12.0279C15.2042 10.258 13.7698 8.82366 11.9999 8.82163ZM11.9999 13.9368C10.9456 13.9368 10.091 13.0822 10.091 12.0279C10.091 10.9736 10.9456 10.1189 11.9999 10.1189C13.0542 10.1189 13.9089 10.9736 13.9089 12.0279C13.9076 13.0817 13.0537 13.9356 11.9999 13.9368Z" fill="url(#paint1_linear)"/>
<path d="M3.20625 8.82163C1.43564 8.82163 0 10.257 0 12.0279C0 13.7985 1.43539 15.2341 3.20625 15.2341C4.97686 15.2341 6.4125 13.7985 6.4125 12.0279C6.41047 10.258 4.9761 8.82366 3.20625 8.82163ZM3.20625 13.9368C2.15194 13.9368 1.2973 13.0822 1.2973 12.0279C1.2973 10.9736 2.15194 10.1189 3.20625 10.1189C4.26056 10.1189 5.1152 10.9736 5.1152 12.0279C5.11394 13.0817 4.26005 13.9356 3.20625 13.9368Z" fill="url(#paint2_linear)"/>
</g>
<defs>
<linearGradient id="paint0_linear" x1="20.7938" y1="-1.85321" x2="20.7938" y2="25.5717" gradientUnits="userSpaceOnUse">
<stop stop-color="#00EFD1"/>
<stop offset="1" stop-color="#00ACEA"/>
</linearGradient>
<linearGradient id="paint1_linear" x1="12" y1="-1.85321" x2="12" y2="25.5717" gradientUnits="userSpaceOnUse">
<stop stop-color="#00EFD1"/>
<stop offset="1" stop-color="#00ACEA"/>
</linearGradient>
<linearGradient id="paint2_linear" x1="3.20621" y1="-1.85321" x2="3.20621" y2="25.5717" gradientUnits="userSpaceOnUse">
<stop stop-color="#00EFD1"/>
<stop offset="1" stop-color="#00ACEA"/>
</linearGradient>
<clipPath id="clip0">
<rect width="24" height="24" fill="white"/>
</clipPath>
</defs>
</svg>
