<svg width="18" height="18" viewBox="0 0 18 18" fill="none" xmlns="http://www.w3.org/2000/svg">
<path d="M12.7512 10.2156C13.3438 9.18441 13.6548 8.01575 13.6534 6.82662C13.6534 3.06247 10.5909 0 6.82677 0C3.06247 0 0 3.06247 0 6.82662C0 10.5909 3.06247 13.6534 6.82662 13.6534C8.01575 13.6548 9.18441 13.3438 10.2154 12.7512L14.9391 17.4749C15.6393 18.175 16.7747 18.175 17.4749 17.4749C18.175 16.7747 18.175 15.6393 17.4749 14.9391L12.7512 10.2156ZM0.770282 6.82662C0.770282 3.48718 3.48718 0.770282 6.82662 0.770282C10.1662 0.770282 12.8831 3.48718 12.8831 6.82662C12.8831 10.1662 10.1662 12.8831 6.82662 12.8831C3.48718 12.8831 0.770282 10.1662 0.770282 6.82662ZM12.3206 10.8742L13.9368 12.4903L12.4905 13.9367L10.8744 12.3206C11.4257 11.913 11.9132 11.4256 12.3204 10.8742H12.3206ZM16.93 16.93C16.5305 17.3288 15.8835 17.3288 15.4839 16.93L13.0349 14.4813L14.4813 13.0349L16.93 15.4839C17.3288 15.8835 17.3288 16.5304 16.93 16.93Z" fill="url(#paint0_linear)"/>
<defs>
<linearGradient id="paint0_linear" x1="8.99955" y1="-0.0893527" x2="8.99955" y2="16.3131" gradientUnits="userSpaceOnUse">
<stop stop-color="#00EFD1"/>
<stop offset="1" stop-color="#00ACEA"/>
</linearGradient>
</defs>
</svg>
