<svg width="18" height="18" viewBox="0 0 18 18" fill="none" xmlns="http://www.w3.org/2000/svg">
<g clip-path="url(#clip0)">
<path d="M8.88416 -5.24945e-06C5.29651 -5.24945e-06 2.06218 2.19118 0.689307 5.55184C-0.683568 8.91234 0.0752065 12.7805 2.612 15.3528C4.85124 17.6326 8.12113 18.5258 11.1869 17.6951C14.2527 16.8646 16.6473 14.4366 17.4665 11.3283C18.2856 8.2199 17.4047 4.90454 15.1562 2.63416C13.4964 0.942045 11.2378 -0.00647663 8.88416 -5.24945e-06ZM4.08928 15.5981V14.8198C4.08928 12.1349 6.23597 9.95825 8.88416 9.95825C11.5323 9.95825 13.679 12.1349 13.679 14.8198V15.5981C10.8286 17.7312 6.93973 17.7312 4.08928 15.5981ZM14.4571 14.9368V14.8198C14.4571 11.7043 11.9571 9.16951 8.88416 9.16951C5.81122 9.16951 3.3112 11.7043 3.3112 14.8198V14.9368C1.70202 13.3906 0.790974 11.2413 0.792189 8.99339C0.792189 4.46942 4.42224 0.788889 8.88416 0.788889C13.3461 0.788889 16.9761 4.46942 16.9761 8.99339C16.9772 11.2413 16.0663 13.3906 14.457 14.9368H14.4571Z" fill="url(#paint0_linear)"/>
<path d="M8.90072 2.64865C7.23971 2.64865 5.89313 4.01396 5.89313 5.69807C5.89313 7.38217 7.23971 8.74748 8.90072 8.74748C10.5617 8.74748 11.9083 7.38217 11.9083 5.69807C11.9063 4.01473 10.561 2.65065 8.90072 2.64865ZM8.90072 7.95859C7.66948 7.95859 6.6712 6.94643 6.6712 5.69807C6.6712 4.44955 7.66948 3.43755 8.90072 3.43755C10.1321 3.43755 11.1302 4.44955 11.1302 5.69807C11.1289 6.94597 10.1315 7.9572 8.90072 7.95859Z" fill="url(#paint1_linear)"/>
</g>
<defs>
<linearGradient id="paint0_linear" x1="8.88411" y1="0.419877" x2="8.88411" y2="18.6847" gradientUnits="userSpaceOnUse">
<stop stop-color="#00EFD1"/>
<stop offset="1" stop-color="#00ACEA"/>
</linearGradient>
<linearGradient id="paint1_linear" x1="8.90074" y1="0.419883" x2="8.90074" y2="18.6847" gradientUnits="userSpaceOnUse">
<stop stop-color="#00EFD1"/>
<stop offset="1" stop-color="#00ACEA"/>
</linearGradient>
<clipPath id="clip0">
<rect width="17.7531" height="18" fill="white"/>
</clipPath>
</defs>
</svg>
